<?xml version="1.0" standalone="no"?>
<svg xmlns:xlink="http://www.w3.org/1999/xlink" id="wave" style="transform:rotate(180deg); transition: 0.3s" viewBox="0 0 1440 100" version="1.1" xmlns="http://www.w3.org/2000/svg"><defs><linearGradient id="sw-gradient-0" x1="0" x2="0" y1="1" y2="0"><stop stop-color="rgba(255, 249, 234, 1)" offset="0%"/><stop stop-color="rgba(255, 249, 234, 1)" offset="100%"/></linearGradient></defs><path style="transform:translate(0, 0px); opacity:1" fill="url(#sw-gradient-0)" d="M0,30L26.7,30C53.3,30,107,30,160,28.3C213.3,27,267,23,320,31.7C373.3,40,427,60,480,61.7C533.3,63,587,47,640,33.3C693.3,20,747,10,800,6.7C853.3,3,907,7,960,16.7C1013.3,27,1067,43,1120,50C1173.3,57,1227,53,1280,53.3C1333.3,53,1387,57,1440,53.3C1493.3,50,1547,40,1600,31.7C1653.3,23,1707,17,1760,26.7C1813.3,37,1867,63,1920,73.3C1973.3,83,2027,77,2080,61.7C2133.3,47,2187,23,2240,13.3C2293.3,3,2347,7,2400,18.3C2453.3,30,2507,50,2560,56.7C2613.3,63,2667,57,2720,53.3C2773.3,50,2827,50,2880,50C2933.3,50,2987,50,3040,45C3093.3,40,3147,30,3200,26.7C3253.3,23,3307,27,3360,30C3413.3,33,3467,37,3520,38.3C3573.3,40,3627,40,3680,48.3C3733.3,57,3787,73,3813,81.7L3840,90L3840,100L3813.3,100C3786.7,100,3733,100,3680,100C3626.7,100,3573,100,3520,100C3466.7,100,3413,100,3360,100C3306.7,100,3253,100,3200,100C3146.7,100,3093,100,3040,100C2986.7,100,2933,100,2880,100C2826.7,100,2773,100,2720,100C2666.7,100,2613,100,2560,100C2506.7,100,2453,100,2400,100C2346.7,100,2293,100,2240,100C2186.7,100,2133,100,2080,100C2026.7,100,1973,100,1920,100C1866.7,100,1813,100,1760,100C1706.7,100,1653,100,1600,100C1546.7,100,1493,100,1440,100C1386.7,100,1333,100,1280,100C1226.7,100,1173,100,1120,100C1066.7,100,1013,100,960,100C906.7,100,853,100,800,100C746.7,100,693,100,640,100C586.7,100,533,100,480,100C426.7,100,373,100,320,100C266.7,100,213,100,160,100C106.7,100,53,100,27,100L0,100Z"/></svg>